<?xml version="1.0" encoding="UTF-8" standalone="no"?>
<!DOCTYPE svg PUBLIC "-//W3C//DTD SVG 1.1//EN" "http://www.w3.org/Graphics/SVG/1.1/DTD/svg11.dtd">
<svg width="100%" height="100%" viewBox="0 0 173 219" version="1.1" xmlns="http://www.w3.org/2000/svg" xmlns:xlink="http://www.w3.org/1999/xlink" xml:space="preserve" xmlns:serif="http://www.serif.com/" style="fill-rule:evenodd;clip-rule:evenodd;stroke-linejoin:round;stroke-miterlimit:2;">
    <g transform="matrix(1,0,0,1,-425.781,-135.525)">
        <g>
            <g>
                <g transform="matrix(0.312826,-0.312826,0.312826,0.312826,277.264,307.341)">
                    <path d="M499.433,72.011C499.476,65.112 505.091,59.525 512,59.525C518.936,59.525 524.568,65.156 524.568,72.092L524.568,101.298C524.568,108.234 518.936,113.865 512,113.865C505.064,113.865 499.432,108.234 499.432,101.298L499.432,72.092L499.433,72.011Z" style="fill:rgb(255,176,55);"/>
                </g>
                <g transform="matrix(9.8233e-17,-0.442402,0.442402,9.8233e-17,399.447,465.384)">
                    <path d="M499.433,72.011C499.476,65.112 505.091,59.525 512,59.525C518.936,59.525 524.568,65.156 524.568,72.092L524.568,101.298C524.568,108.234 518.936,113.865 512,113.865C505.064,113.865 499.432,108.234 499.432,101.298L499.432,72.092L499.433,72.011Z" style="fill:rgb(255,176,55);"/>
                </g>
                <g transform="matrix(-0.312826,-0.312826,0.312826,-0.312826,597.597,490.741)">
                    <path d="M499.433,72.011C499.476,65.112 505.091,59.525 512,59.525C518.936,59.525 524.568,65.156 524.568,72.092L524.568,101.298C524.568,108.234 518.936,113.865 512,113.865C505.064,113.865 499.432,108.234 499.432,101.298L499.432,72.092L499.433,72.011Z" style="fill:rgb(255,176,55);"/>
                </g>
                <g transform="matrix(0.442402,0,0,0.442402,302.62,110.578)">
                    <path d="M625.749,183.114L625.749,155.114L625.75,154.976C625.824,143.334 635.299,133.904 646.959,133.904C658.664,133.904 668.168,143.408 668.168,155.114L668.168,395.135L668.167,395.64C667.888,481.606 598.019,551.303 512,551.303C500.294,551.303 490.791,541.8 490.791,530.094C490.791,518.388 500.294,508.885 512,508.885L512,508.724C573.995,508.724 624.457,458.95 625.57,397.221C597.083,427.398 556.725,446.24 512,446.24C425.809,446.24 355.832,376.263 355.832,290.072C355.832,203.881 425.809,133.904 512,133.904C556.82,133.904 597.254,152.826 625.749,183.114ZM512,176.483C574.691,176.483 625.589,227.381 625.589,290.072C625.589,352.763 574.691,403.661 512,403.661C449.309,403.661 398.411,352.763 398.411,290.072C398.411,227.381 449.309,176.483 512,176.483Z" style="fill:rgb(54,69,71);"/>
                </g>
                <g transform="matrix(0.454413,0,0,0.454413,291.9,107.322)">
                    <circle cx="522.058" cy="289.5" r="110.5" style="fill:rgb(255,176,55);"/>
                </g>
                <g transform="matrix(0.442402,0,0,0.442402,302.62,110.578)">
                    <path d="M511.36,190.198L511.5,190.199L511.5,190.199C518.372,190.274 523.928,195.876 523.928,202.766C523.928,209.702 518.296,215.333 511.36,215.333C510.78,215.333 510.208,215.294 509.648,215.217C469.722,216.118 437.479,248.361 436.578,288.288C436.654,288.848 436.694,289.419 436.694,290C436.694,296.936 431.062,302.568 424.126,302.568C417.19,302.568 411.558,296.936 411.558,290C411.558,234.918 456.278,190.198 511.36,190.198Z" style="fill:rgb(255,226,104);"/>
                </g>
            </g>
            <g transform="matrix(0.442402,0,0,0.442402,302.62,109.191)">
                <path d="M499.433,72.011C499.476,65.112 505.091,59.525 512,59.525C518.936,59.525 524.568,65.156 524.568,72.092L524.568,101.298C524.568,108.234 518.936,113.865 512,113.865C505.064,113.865 499.432,108.234 499.432,101.298L499.432,72.092L499.433,72.011Z" style="fill:rgb(255,176,55);"/>
            </g>
        </g>
    </g>
</svg>
